<svg xmlns="http://www.w3.org/2000/svg" width="48" height="48" viewBox="0 0 48 48">
  <g id="ic_close_scanner" transform="translate(8 8)">
    <path id="Path_2628" data-name="Path 2628" d="M0,0H48V48H0Z" transform="translate(-8 -8)" fill="none"/>
    <path id="Path_22300" data-name="Path 22300" d="M240.889-1704.225l-7.6-7.6-7.6,7.6a1.333,1.333,0,0,1-1.885,0,1.333,1.333,0,0,1,0-1.885l7.6-7.6-7.6-7.6a1.334,1.334,0,0,1,0-1.886,1.333,1.333,0,0,1,1.885,0l7.6,7.6,7.6-7.6a1.334,1.334,0,0,1,1.886,0,1.334,1.334,0,0,1,0,1.886l-7.6,7.6,7.6,7.6a1.333,1.333,0,0,1,0,1.885,1.33,1.33,0,0,1-.943.391A1.33,1.33,0,0,1,240.889-1704.225Z" transform="translate(-217.29 1729.71)" fill="#fff"/>
  </g>
</svg>
