<svg xmlns="http://www.w3.org/2000/svg" width="48" height="48" viewBox="0 0 48 48">
  <g id="ic_flash_off" transform="translate(8 8)">
    <path id="Path_2624" data-name="Path 2624" d="M0,0H48V48H0Z" transform="translate(-8 -8)" fill="none"/>
    <path id="Path_22299" data-name="Path 22299" d="M-186.357-1728.334a.819.819,0,0,1-.648-.277.778.778,0,0,1-.166-.685l1.369-9.444h-5.333a.615.615,0,0,1-.611-.353.8.8,0,0,1,.055-.758l1.921-3.26-5.84-5.84a1.336,1.336,0,0,1,0-1.886,1.324,1.324,0,0,1,.943-.391,1.324,1.324,0,0,1,.943.391l5.353,5.354,13.5,13.5a1.324,1.324,0,0,1,.391.943,1.324,1.324,0,0,1-.391.942,1.325,1.325,0,0,1-.943.391,1.325,1.325,0,0,1-.943-.391l-5.046-5.046-3.742,6.365a.645.645,0,0,1-.334.314A1.093,1.093,0,0,1-186.357-1728.334Zm7.351-11.559h0l-7.964-7.964,3.948-6.7a.654.654,0,0,1,.334-.314,1.09,1.09,0,0,1,.481-.129.819.819,0,0,1,.648.277.785.785,0,0,1,.168.685l-1.372,9.445h5.3a.664.664,0,0,1,.63.332.736.736,0,0,1-.037.742l-2.131,3.625Z" transform="translate(200.286 1757.667)" fill="#fff"/>
  </g>
</svg>
