<svg xmlns="http://www.w3.org/2000/svg" width="48" height="48" viewBox="0 0 48 48">
  <g id="ic_flash_on" transform="translate(8 8)">
    <path id="Path_2624" data-name="Path 2624" d="M0,0H48V48H0Z" transform="translate(-8 -8)" fill="none"/>
    <path id="bolt_FILL1_wght400_GRAD0_opsz40" d="M17.025,31.667a.815.815,0,0,1-.648-.277.779.779,0,0,1-.166-.685l1.37-9.444H12.248a.614.614,0,0,1-.611-.352.8.8,0,0,1,.055-.759l8.667-14.7a.646.646,0,0,1,.333-.315A1.086,1.086,0,0,1,21.174,5a.815.815,0,0,1,.648.277.781.781,0,0,1,.167.685l-1.371,9.444h5.3a.662.662,0,0,1,.63.333.732.732,0,0,1-.037.741l-8.667,14.74a.641.641,0,0,1-.333.315A1.086,1.086,0,0,1,17.025,31.667Z" transform="translate(-3.097 -2.333)" fill="#ffeb00"/>
  </g>
</svg>
