<svg id="ic_info" xmlns="http://www.w3.org/2000/svg" width="24" height="24" viewBox="0 0 24 24">
  <path id="Path_22291" data-name="Path 22291" d="M0,0H24V24H0Z" fill="none"/>
  <path id="ic_info-2" data-name="ic_info" d="M12,17a.982.982,0,0,0,1-1V11.975a.928.928,0,0,0-.287-.7A.993.993,0,0,0,12,11a.982.982,0,0,0-1,1v4.025a.926.926,0,0,0,.288.7A.989.989,0,0,0,12,17Zm0-8a.984.984,0,1,0-.712-.288A.968.968,0,0,0,12,9Zm0,13a9.732,9.732,0,0,1-3.9-.788A9.978,9.978,0,0,1,2.788,15.9,9.732,9.732,0,0,1,2,12a9.732,9.732,0,0,1,.788-3.9A9.984,9.984,0,0,1,8.1,2.787,9.743,9.743,0,0,1,12,2a9.743,9.743,0,0,1,3.9.787A9.984,9.984,0,0,1,21.212,8.1,9.732,9.732,0,0,1,22,12a9.732,9.732,0,0,1-.788,3.9A9.978,9.978,0,0,1,15.9,21.212,9.732,9.732,0,0,1,12,22Zm0-10Zm0,8a7.714,7.714,0,0,0,5.663-2.337A7.714,7.714,0,0,0,20,12a7.714,7.714,0,0,0-2.337-5.663A7.714,7.714,0,0,0,12,4,7.711,7.711,0,0,0,6.338,6.337,7.713,7.713,0,0,0,4,12a7.713,7.713,0,0,0,2.338,5.663A7.711,7.711,0,0,0,12,20Z" fill="#fff"/>
</svg>
